<?xml version="1.0" standalone="no"?>
<!DOCTYPE svg PUBLIC "-//W3C//DTD SVG 20010904//EN"
 "http://www.w3.org/TR/2001/REC-SVG-20010904/DTD/svg10.dtd">
<svg version="1.0" xmlns="http://www.w3.org/2000/svg"
 width="512.000000pt" height="512.000000pt" viewBox="0 0 512.000000 512.000000"
 preserveAspectRatio="xMidYMid meet">

<g transform="translate(0.000000,512.000000) scale(0.100000,-0.100000)"
fill="blue" stroke="none">
<path d="M243 5106 c-88 -28 -176 -107 -216 -194 l-22 -47 0 -1790 0 -1790 26
-56 c52 -109 138 -177 253 -198 40 -7 341 -11 909 -11 l850 0 -6 -53 c-14
-116 -75 -240 -147 -297 -63 -50 -106 -63 -231 -70 -143 -9 -215 -37 -284
-111 -63 -67 -86 -125 -92 -230 -7 -112 1 -151 40 -196 59 -67 -18 -63 1237
-63 1255 0 1178 -4 1237 63 39 45 47 84 41 196 -6 107 -38 180 -104 241 -74
68 -137 91 -273 100 -64 4 -129 12 -144 19 -122 49 -215 188 -234 348 l-6 53
850 0 c568 0 869 4 909 11 115 21 201 89 253 198 l26 56 0 1790 0 1790 -27 55
c-35 71 -97 133 -167 168 l-56 27 -2290 2 c-1865 1 -2298 -1 -2332 -11z m4594
-167 c38 -14 83 -57 99 -96 12 -27 14 -288 14 -1583 l0 -1550 -2390 0 -2390 0
0 1549 c0 1071 3 1558 11 1578 14 37 57 82 94 99 25 11 423 13 2282 14 1567 0
2260 -3 2280 -11z m113 -3502 c0 -87 -3 -110 -22 -147 -27 -52 -60 -78 -114
-90 -52 -13 -4456 -13 -4508 0 -54 12 -87 38 -113 90 -20 37 -23 60 -23 147
l0 103 2390 0 2390 0 0 -103z m-2037 -481 c9 -90 52 -215 102 -291 l43 -65
-498 0 -498 0 43 65 c50 77 95 205 103 293 l5 62 347 0 347 0 6 -64z m640
-540 c77 -28 116 -92 117 -188 l0 -58 -1110 0 -1110 0 0 58 c1 96 40 160 117
188 56 20 1930 20 1986 0z"/>
<path d="M445 4761 c-48 -22 -69 -44 -90 -94 -13 -32 -15 -190 -15 -1344 0
-1306 0 -1307 21 -1350 14 -29 35 -52 63 -68 l43 -25 2093 0 2093 0 43 25 c28
16 49 39 63 68 21 43 21 44 21 1353 0 1249 -1 1311 -19 1349 -22 48 -44 69
-94 90 -32 13 -266 15 -2109 15 -1990 0 -2075 -1 -2113 -19z m4165 -1431 l0
-1280 -555 0 -555 0 0 71 c0 39 4 79 10 89 5 10 34 33 65 50 69 40 129 107
155 176 18 49 20 78 20 259 l0 203 213 4 c205 3 214 4 268 29 112 53 190 157
204 273 9 71 -16 167 -60 232 -37 54 -65 78 -135 115 -43 23 -56 24 -266 27
l-221 3 -11 37 c-41 137 -176 232 -312 219 -31 -2 -70 -12 -87 -20 l-30 -16
-18 40 c-58 128 -221 199 -356 155 -28 -10 -52 -16 -54 -14 -1 2 -10 18 -19
35 -64 127 -223 194 -352 149 -46 -16 -50 -16 -59 0 -46 76 -73 107 -112 134
-148 98 -340 48 -429 -112 l-29 -53 -5 -275 -5 -275 -136 -3 -137 -3 -53 67
c-65 82 -132 136 -206 166 -53 21 -73 23 -233 23 -159 0 -179 -2 -222 -22 -69
-32 -137 -99 -169 -166 -51 -108 -47 -198 10 -261 37 -41 80 -56 160 -56 60 0
74 -3 100 -26 37 -31 42 -79 12 -115 -16 -20 -31 -24 -109 -30 -131 -9 -191
-52 -207 -149 -15 -91 51 -235 138 -297 73 -53 120 -63 291 -63 228 0 286 24
412 169 l69 80 143 0 142 1 0 -98 c0 -204 64 -331 230 -459 47 -35 90 -74 97
-86 7 -13 12 -61 13 -114 l0 -93 -855 0 -855 0 0 1280 0 1280 2050 0 2050 0 0
-1280z m-2349 811 l39 -39 0 -214 c0 -244 6 -273 56 -294 37 -15 58 -11 92 19
20 19 22 29 22 141 0 67 5 137 10 157 23 82 115 122 183 80 59 -36 67 -67 67
-256 0 -167 5 -196 39 -222 27 -21 79 -15 106 12 23 22 25 32 25 115 0 107 15
151 62 180 43 26 87 25 129 -3 61 -41 69 -70 69 -265 0 -170 0 -173 25 -197
36 -37 86 -34 119 6 24 28 26 38 26 120 0 62 5 99 15 120 18 34 69 69 103 69
40 0 91 -28 112 -62 19 -32 20 -49 20 -563 0 -604 4 -574 -86 -631 -131 -85
-164 -139 -164 -276 l0 -88 -469 0 -469 0 -4 118 c-4 149 -23 192 -111 260
-111 86 -174 151 -199 205 l-23 52 -3 697 c-3 772 -5 738 61 778 18 11 49 20
71 20 31 0 45 -7 77 -39z m-999 -481 c57 -16 118 -68 174 -150 31 -44 63 -80
80 -87 19 -8 88 -12 197 -13 l167 0 0 -170 0 -170 -181 0 -181 0 -27 -31 c-76
-91 -180 -193 -208 -205 -22 -10 -76 -14 -170 -14 -122 0 -142 2 -172 21 -19
11 -42 30 -52 42 -19 24 -40 92 -31 102 3 3 35 5 71 5 153 0 261 106 261 254
-1 146 -102 244 -262 254 l-78 5 7 26 c15 63 45 100 103 125 42 18 244 22 302
6z m2906 -264 c133 -70 127 -258 -11 -311 -34 -13 -76 -15 -222 -13 l-180 3
-3 168 -2 167 195 0 c149 0 202 -3 223 -14z"/>
</g>
</svg>
