 <svg version="1.0" xmlns="http://www.w3.org/2000/svg"  width="300.000000pt" height="300.000000pt" viewBox="0 0 300.000000 300.000000"  preserveAspectRatio="xMidYMid meet">  <g transform="translate(0.000000,300.000000) scale(0.100000,-0.100000)" fill="white" stroke="none"> <path d="M925 2936 c-55 -25 -95 -85 -95 -142 0 -42 38 -103 75 -121 l35 -17 0 -133 0 -133 -40 0 -40 0 0 113 c0 75 -4 117 -12 125 -7 7 -35 12 -64 12 -49 0 -53 2 -72 34 -29 49 -73 69 -139 64 -186 -16 -169 -288 19 -288 55 0 103 29 125 75 12 25 23 35 40 35 22 0 23 -3 23 -85 l0 -85 -73 0 c-43 0 -78 -5 -85 -12 -8 -8 -12 -59 -12 -165 l0 -153 -133 0 -133 0 -17 35 c-33 70 -142 95 -206 48 -47 -36 -66 -71 -65 -124 1 -76 55 -136 130 -145 52 -7 122 29 143 73 l16 33 133 0 132 0 0 -90 0 -90 -213 0 c-152 0 -216 -3 -225 -12 -9 -9 -12 -129 -12 -480 0 -294 -4 -468 -10 -468 -21 0 -80 -64 -91 -99 -16 -53 2 -111 46 -150 45 -39 93 -48 149 -27 114 44 128 203 23 261 l-37 20 0 438 0 437 185 0 185 0 0 -23 c0 -38 19 -47 97 -47 l73 0 0 -85 c0 -82 -1 -85 -23 -85 -17 0 -28 10 -40 35 -49 103 -207 99 -259 -5 -50 -99 19 -210 132 -210 54 0 103 27 125 70 14 27 20 30 61 30 81 0 84 4 84 135 l0 115 40 0 40 0 0 -132 0 -133 -33 -16 c-47 -23 -79 -83 -74 -138 8 -79 69 -135 147 -135 76 0 137 54 146 130 7 52 -29 122 -73 143 l-33 16 0 133 0 132 40 0 40 0 0 -114 c0 -133 4 -140 79 -134 48 3 50 2 65 -30 48 -100 207 -95 258 8 49 98 -21 210 -131 210 -58 0 -106 -28 -128 -75 -12 -25 -23 -35 -40 -35 -22 0 -23 3 -23 85 l0 85 73 0 c43 0 78 5 85 12 8 8 12 59 12 165 l0 153 133 0 132 0 16 -33 c21 -44 91 -80 143 -73 76 9 130 70 130 146 0 78 -56 139 -135 147 -55 5 -115 -27 -138 -74 l-16 -33 -132 0 -133 0 0 153 c0 106 -4 157 -12 165 -7 7 -42 12 -85 12 l-73 0 0 85 c0 82 1 85 23 85 17 0 28 -10 40 -35 49 -103 207 -99 259 5 23 44 23 86 0 130 -51 102 -206 108 -257 10 -14 -28 -20 -30 -68 -30 -29 0 -58 -5 -65 -12 -8 -8 -12 -50 -12 -125 l0 -113 -40 0 -40 0 0 133 0 132 33 16 c44 21 80 91 73 143 -12 96 -119 161 -201 122z m108 -98 c9 -11 17 -29 17 -40 0 -25 -44 -68 -70 -68 -25 0 -70 42 -70 65 0 66 79 93 123 43z m-399 -193 c42 -42 18 -107 -42 -113 -36 -4 -72 29 -72 65 0 51 78 84 114 48z m786 -5 c40 -40 9 -110 -50 -110 -29 0 -70 38 -70 65 0 7 9 24 21 39 25 32 70 35 99 6z m-701 -33 c8 -10 7 -17 -1 -25 -19 -19 -28 -14 -28 13 0 27 12 32 29 12z m119 -229 c20 -20 14 -28 -18 -28 -28 0 -30 2 -20 20 12 23 21 25 38 8z m160 0 c19 -19 14 -28 -18 -28 -16 0 -30 4 -30 8 0 9 21 32 30 32 3 0 11 -5 18 -12z m162 -8 c10 -18 8 -20 -20 -20 -32 0 -38 8 -18 28 17 17 26 15 38 -8z m110 -350 l0 -290 -290 0 -290 0 0 290 0 290 290 0 290 0 0 -290z m-1025 45 c32 -31 32 -59 0 -90 -29 -30 -55 -32 -86 -7 -45 38 -16 122 43 122 10 0 30 -11 43 -25z m1556 7 c45 -38 16 -122 -43 -122 -25 0 -68 44 -68 70 0 26 43 70 68 70 11 0 30 -8 43 -18z m-1151 -59 l0 -37 -22 21 c-18 18 -19 24 -8 37 20 25 30 19 30 -21z m690 22 c10 -12 10 -18 0 -30 -19 -23 -30 -18 -30 15 0 33 11 38 30 15z m-690 -268 c0 -12 7 -32 15 -44 26 -37 1 -34 -29 3 -22 28 -25 38 -16 49 18 22 30 18 30 -8z m200 -86 c0 -14 -28 -33 -40 -26 -20 12 -10 35 15 35 14 0 25 -4 25 -9z m160 0 c0 -5 -7 -14 -15 -21 -12 -10 -18 -10 -30 0 -23 19 -18 30 15 30 17 0 30 -4 30 -9z m150 -5 c0 -22 -19 -30 -35 -16 -22 18 -18 30 10 30 15 0 25 -6 25 -14z m-521 -192 c26 -33 26 -45 0 -78 -38 -48 -119 -22 -119 39 0 61 81 87 119 39z m781 6 c41 -41 10 -110 -49 -110 -30 0 -71 38 -71 65 0 7 9 24 21 39 25 32 70 35 99 6z m-701 -33 c8 -10 7 -17 -1 -25 -19 -19 -28 -14 -28 13 0 27 12 32 29 12z m306 -172 c30 -29 32 -55 7 -86 -38 -45 -122 -16 -122 43 0 25 44 68 70 68 12 0 32 -11 45 -25z m-780 -540 c32 -31 32 -59 -1 -91 -27 -28 -64 -27 -93 1 -23 22 -18 75 8 97 31 25 57 23 86 -7z"/> <path d="M2019 2190 l-30 -29 3 -282 3 -281 28 -24 c27 -23 35 -24 158 -24 l129 0 0 -43 c0 -27 -10 -64 -27 -96 -30 -61 -24 -84 21 -89 36 -4 115 23 167 57 46 31 97 101 106 144 l6 27 152 0 c147 0 153 1 178 24 14 13 29 35 32 48 3 13 5 142 3 287 l-3 263 -28 24 -28 24 -420 0 -421 0 -29 -30z m849 -302 l-3 -253 -169 -5 c-187 -6 -175 -1 -196 -80 -8 -31 -26 -58 -56 -87 -24 -24 -48 -43 -52 -43 -5 0 -6 38 -4 83 7 130 11 127 -168 127 l-150 0 0 255 0 255 400 0 400 0 -2 -252z m-492 -507 c-4 -6 -21 -11 -37 -11 l-30 0 17 31 16 32 20 -21 c11 -11 17 -25 14 -31z"/> <path d="M2170 2066 c-6 -8 -10 -25 -8 -38 l3 -23 305 0 305 0 3 23 c7 51 2 52 -308 52 -239 0 -290 -2 -300 -14z"/> <path d="M2170 1916 c-6 -8 -10 -25 -8 -38 l3 -23 305 0 305 0 3 23 c7 51 2 52 -308 52 -239 0 -290 -2 -300 -14z"/> <path d="M2172 1768 c-14 -14 -16 -54 -2 -63 5 -3 140 -6 300 -6 160 0 295 3 300 6 14 9 12 49 -2 63 -17 17 -579 17 -596 0z"/> <path d="M1870 1441 c-129 -40 -204 -138 -204 -266 0 -56 6 -80 27 -121 46 -91 146 -154 242 -154 93 0 202 68 248 154 31 58 31 184 0 242 -59 111 -204 178 -313 145z m158 -98 c89 -47 127 -165 80 -253 -31 -57 -89 -98 -150 -106 -69 -10 -148 30 -184 93 -98 166 81 354 254 266z"/> <path d="M1820 834 c-101 -21 -186 -69 -265 -149 -39 -38 -83 -93 -98 -122 -32 -60 -67 -189 -67 -246 0 -150 162 -239 480 -262 165 -13 395 27 498 85 73 42 105 88 110 159 17 238 -181 483 -433 536 -85 18 -140 18 -225 -1z m268 -95 c149 -51 256 -170 297 -326 26 -98 21 -130 -24 -174 -71 -67 -219 -101 -431 -101 -209 0 -377 45 -436 116 -24 27 -26 35 -20 88 35 306 330 497 614 397z"/> </g> </svg> 